<?xml version="1.0" encoding="utf-8"?>
<!-- Generator: Adobe Illustrator 23.0.4, SVG Export Plug-In . SVG Version: 6.00 Build 0)  -->
<svg version="1.1" id="Layer_1" xmlns="http://www.w3.org/2000/svg" xmlns:xlink="http://www.w3.org/1999/xlink" x="0px" y="0px"
	 viewBox="0 0 1935 1659" style="enable-background:new 0 0 1935 1659;" xml:space="preserve">
<style type="text/css">
	.st0{fill:#2C7DF7;}
	.st1{font-family:'MarkerFelt-Thin';}
	.st2{font-size:600px;}
</style>
<title>tezos-logo-01</title>
<g>
	<path class="st0" d="M792.4,1624.9c-113.7,0-196.6-27.4-248.9-82.1c-48.4-46.4-76.5-110-78.1-177c-0.6-20.4,4.1-40.5,13.7-58.5
		c8.9-15.5,21.8-28.4,37.3-37.4c36.6-18.3,79.6-18.3,116.2,0c15.5,8.9,28.3,21.8,37.1,37.4c9.8,17.9,14.7,38.1,14.2,58.5
		c1,24.4-6,48.4-19.9,68.4c-11.6,16.3-28.2,28.5-47.3,34.6c18.7,23.8,45.1,40.2,74.7,46.6c33.1,9.6,67.3,14.5,101.8,14.7
		c45.6,0.4,90.3-13,128.2-38.3c39.3-27.8,68.6-67.5,83.6-113.2c19-54.5,28.3-111.8,27.4-169.5c1.5-60.1-8.6-120-29.9-176.2
		c-16-45-46.3-83.5-86.4-109.5c-37.2-23.5-80.4-35.9-124.4-35.6c-38.4,3.3-75.4,15.8-107.8,36.6L604,964.3v-40.1l359.2-481.8H465.3
		v500c-1.4,36.1,8.1,71.7,27.4,102.3c18.9,27.1,50.7,42.3,83.6,40.1c30-0.6,58.9-10.8,82.6-29.1c26.9-19.7,50.3-43.8,69.2-71.2
		c1.7-4.8,4.8-9,9-11.9c3.3-2.9,7.6-4.5,12-4.5c8.6,0.8,16.8,4.3,23.4,10c8.3,9.3,12.8,21.4,12.7,33.8c-1,8.4-2.5,16.7-4.5,24.9
		c-17.7,42.8-47.3,79.6-85.4,106c-35.3,23.9-77.1,36.6-119.8,36.4c-107.8,0-182.4-21.2-224-63.7c-43.1-47.4-65.4-110.2-61.7-174.2
		V442.4H36.7v-92.9h254.4V137.7l-58.2-58.3V31.9h169l63.5,32.9v284.7l657.6-2l65.5,65.7L785.2,818.4c24.4-9.8,50-16,76.2-18.4
		c51.7,2.3,102.2,16.7,147.4,42.1c52.3,24.8,96.3,64.2,126.9,113.3c27.4,41.6,46.8,87.9,57.2,136.7c8.6,38.4,13.1,77.6,13.7,117
		c0.3,75.1-16.8,149.3-49.8,216.8c-31.3,65.3-84,118-149.3,149.3C940.6,1608.1,867,1625.1,792.4,1624.9z"/>
</g>
<text transform="matrix(1 0 0 1 1250.8639 1178.5417)" class="st1 st2">TK</text>
</svg>
